<?xml version="1.0" encoding="utf-8"?>
<!-- Generator: Adobe Illustrator 24.3.0, SVG Export Plug-In . SVG Version: 6.00 Build 0)  -->
<svg version="1.1" id="레이어_1" xmlns="http://www.w3.org/2000/svg" xmlns:xlink="http://www.w3.org/1999/xlink" x="0px"
	 y="0px" viewBox="0 0 180 55" style="enable-background:new 0 0 180 55;" xml:space="preserve">


<polygon id="SVGID_1_" points="26.6,-0.7 26.3,-0.5 26.3,-0.6 0.7,13.4 0.7,15.7 23,28.2 23,49.3 2.6,37.5 2.6,28.2 -0.1,28.2
	-0.1,38.3 0.6,39.5 23.7,52.9 25.6,51.7 25.6,27.4 25,26.3 4.1,14.6 26.6,2.3 48.6,14.5 28.3,26.3 27.7,27.4 27.7,51.7 29.7,52.9
	52.2,39.4 52.9,38.3 52.8,28.2 50.2,28.2 50.2,37.5 30.4,49.4 30.4,28.2 52,15.6 52,13.3 26.9,-0.6 26.9,-0.6 		"/>

<polygon class="st1" points="75.3,17.2 73.1,14.9 73,9.9 75.3,7.7 93.2,7.6 93.2,1.8 72.3,1.8 66.6,7.5 66.6,17.2 72.3,22.8
	86.7,22.8 88.9,25.1 88.9,31.4 86.7,33.7 67.9,33.8 67.9,39.6 89.6,39.6 95.3,33.9 95.3,22.9 89.6,17.2 "/>
<polygon class="st1" points="128.6,17 128.7,7.5 123,1.8 107.7,1.7 102.6,6.9 106.8,11.1 110.5,7.4 120,7.4 122.2,9.7 122.2,14.3
	102.9,31.7 102.9,39.5 128.9,39.5 129,33.7 110.2,33.7 "/>
<polygon class="st1" points="173.2,1.9 167.2,33.5 165.9,33.5 159.9,1.9 154.1,1.9 148.1,33.6 146.9,33.6 140.8,1.9 134,1.9
	142.7,39.7 152.4,39.7 157,15.8 161.6,39.7 171.3,39.6 180,1.9 "/>

</svg>
